{"title":"Jennifer Lopez Ft. Iggy Azalea - Booty [Music Video] 1080p [Sbyk","uid":11175924,"size":94965581,"categoryP":"video","categoryS":"music_videos","magnet":"?xt=urn:btih:119c7c31e61e3b25af504add6bd3c1660b21c7fa&amp;dn=Jennifer+Lopez+Ft.+Iggy+Azalea+-+Booty+%5BMusic+Video%5D+1080p+%5BSbyk&amp;tr=udp%3A%2F%2Ftracker.openbittorrent.com%3A80&amp;tr=udp%3A%2F%2Fopen.demonii.com%3A1337&amp;tr=udp%3A%2F%2Ftracker.coppersurfer.tk%3A6969&amp;tr=udp%3A%2F%2Fexodus.desync.com%3A6969","seeders":5,"leechers":3,"uploader":"Sbyky","files":1,"time":1412785832,"description":"General\nComplete name                            : Jennifer Lopez Ft. Iggy Azalea - Booty [Music Video] 1080p [Sbyky].MP4\nFormat                                   : MPEG-4\nFormat profile                           : Base Media\nCodec ID                                 : isom\nFile size                                : 90.6 MiB\nDuration                                 : 4mn 16s\nOverall bit rate mode                    : Variable\nOverall bit rate                         : 2 958 Kbps\nEncoded date                             : UTC 2014-09-27 04:46:42\nTagged date                              : UTC 2014-09-27 04:46:42\n\nVideo\nID                                       : 1\nFormat                                   : AVC\nFormat/Info                              : Advanced Video Codec\nFormat profile                           : &lt;a class=&quot;__cf_email__&quot; href=&quot;/cdn-cgi/l/email-protection&quot; data-cfemail=&quot;81c9e8e6e9c1cdb5afb1&quot;&gt;[email&amp;#160;protected]&lt;/a&gt;&lt;script cf-hash='f9e31' type=&quot;text/javascript&quot;&gt;\n/* &lt;![CDATA[ */!function(){try{var t=&quot;currentScript&quot;in document?document.currentScript:function(){for(var t=document.getElementsByTagName(&quot;script&quot;),e=t.length;e--;)if(t[e].getAttribute(&quot;cf-hash&quot;))return t[e]}();if(t&amp;&amp;t.previousSibling){var e,r,n,i,c=t.previousSibling,a=c.getAttribute(&quot;data-cfemail&quot;);if(a){for(e=&quot;&quot;,r=parseInt(a.substr(0,2),16),n=2;a.length-n;n+=2)i=parseInt(a.substr(n,2),16)^r,e+=String.fromCharCode(i);e=document.createTextNode(e),c.parentNode.replaceChild(e,c)}}}catch(u){}}();/* ]]&gt; */&lt;/script&gt;\nFormat settings, CABAC                   : Yes\nFormat settings, ReFrames                : 3 frames\nCodec ID                                 : avc1\nCodec ID/Info                            : Advanced Video Coding\nDuration                                 : 4mn 16s\nBit rate                                 : 2 829 Kbps\nWidth                                    : 1 920 pixels\nHeight                                   : 1 080 pixels\nDisplay aspect ratio                     : 16:9\nFrame rate mode                          : Variable\nFrame rate                               : 23.976 fps\nMinimum frame rate                       : 23.974 fps\nMaximum frame rate                       : 23.981 fps\nColor space                              : YUV\nChroma subsampling                       : 4:2:0\nBit depth                                : 8 bits\nScan type                                : Progressive\nBits/(Pixel*Frame)                       : 0.057\nStream size                              : 86.6 MiB (96%)\nEncoded date                             : UTC 2014-09-27 04:46:42\nTagged date                              : UTC 2014-09-27 04:46:42\n\nAudio\nID                                       : 2\nFormat                                   : AAC\nFormat/Info                              : Advanced Audio Codec\nFormat profile                           : LC\nCodec ID                                 : 40\nDuration                                 : 4mn 16s\nBit rate mode                            : Variable\nBit rate                                 : 126 Kbps\nChannel(s)                               : 2 channels\nChannel positions                        : Front: L R\nSampling rate                            : 44.1 KHz\nCompression mode                         : Lossy\nStream size                              : 3.85 MiB (4%)\nEncoded date                             : UTC 2014-09-27 04:44:53\nTagged date                              : UTC 2014-09-27 04:44:53\n\nShared By Sbyky\n","torrent":{"xt":"urn:btih:119c7c31e61e3b25af504add6bd3c1660b21c7fa","amp;dn":"Jennifer+Lopez+Ft.+Iggy+Azalea+-+Booty+%5BMusic+Video%5D+1080p+%5BSbyk","amp;tr":["udp%3A%2F%2Ftracker.openbittorrent.com%3A80","udp%3A%2F%2Fopen.demonii.com%3A1337","udp%3A%2F%2Ftracker.coppersurfer.tk%3A6969","udp%3A%2F%2Fexodus.desync.com%3A6969"],"infoHash":"119c7c31e61e3b25af504add6bd3c1660b21c7fa","infoHashBuffer":{"type":"Buffer","data":[17,156,124,49,230,30,59,37,175,80,74,221,107,211,193,102,11,33,199,250]},"announce":[],"urlList":[]}}